<mxfile host="app.diagrams.net" modified="2020-12-09T07:50:44.411Z" agent="5.0 (Windows NT 6.1; Win64; x64) AppleWebKit/537.36 (KHTML, like Gecko) Chrome/85.0.4183.83 Safari/537.36" etag="NGjAZrHKMd79CgayNsFn" version="13.11.0" type="github">
  <diagram id="prtHgNgQTEPvFCAcTncT" name="Page-1">
    <mxGraphModel dx="1038" dy="548" grid="1" gridSize="10" guides="1" tooltips="1" connect="1" arrows="1" fold="1" page="1" pageScale="1" pageWidth="827" pageHeight="1169" math="0" shadow="0">
      <root>
        <mxCell id="0" />
        <mxCell id="1" parent="0" />
        <mxCell id="D9YKL_5FbP4xU0gXBnWu-1" value="" style="rounded=0;whiteSpace=wrap;html=1;" vertex="1" parent="1">
          <mxGeometry x="279" y="70" width="220" height="110" as="geometry" />
        </mxCell>
        <mxCell id="D9YKL_5FbP4xU0gXBnWu-17" value="8" style="rounded=0;whiteSpace=wrap;html=1;" vertex="1" parent="1">
          <mxGeometry x="303" y="90" width="50" height="30" as="geometry" />
        </mxCell>
        <mxCell id="D9YKL_5FbP4xU0gXBnWu-18" value="17" style="rounded=0;whiteSpace=wrap;html=1;" vertex="1" parent="1">
          <mxGeometry x="353" y="90" width="50" height="30" as="geometry" />
        </mxCell>
        <mxCell id="D9YKL_5FbP4xU0gXBnWu-19" value="33" style="rounded=0;whiteSpace=wrap;html=1;" vertex="1" parent="1">
          <mxGeometry x="403" y="90" width="50" height="30" as="geometry" />
        </mxCell>
        <mxCell id="D9YKL_5FbP4xU0gXBnWu-50" style="edgeStyle=orthogonalEdgeStyle;rounded=0;orthogonalLoop=1;jettySize=auto;html=1;exitX=0.5;exitY=1;exitDx=0;exitDy=0;entryX=0.5;entryY=0;entryDx=0;entryDy=0;" edge="1" parent="1" source="D9YKL_5FbP4xU0gXBnWu-20" target="D9YKL_5FbP4xU0gXBnWu-30">
          <mxGeometry relative="1" as="geometry" />
        </mxCell>
        <mxCell id="D9YKL_5FbP4xU0gXBnWu-20" value="P1" style="rounded=0;whiteSpace=wrap;html=1;" vertex="1" parent="1">
          <mxGeometry x="303" y="120" width="50" height="30" as="geometry" />
        </mxCell>
        <mxCell id="D9YKL_5FbP4xU0gXBnWu-51" style="edgeStyle=orthogonalEdgeStyle;rounded=0;orthogonalLoop=1;jettySize=auto;html=1;exitX=0.5;exitY=1;exitDx=0;exitDy=0;" edge="1" parent="1" source="D9YKL_5FbP4xU0gXBnWu-21" target="D9YKL_5FbP4xU0gXBnWu-23">
          <mxGeometry relative="1" as="geometry" />
        </mxCell>
        <mxCell id="D9YKL_5FbP4xU0gXBnWu-21" value="P2" style="rounded=0;whiteSpace=wrap;html=1;" vertex="1" parent="1">
          <mxGeometry x="353" y="120" width="50" height="30" as="geometry" />
        </mxCell>
        <mxCell id="D9YKL_5FbP4xU0gXBnWu-52" style="edgeStyle=orthogonalEdgeStyle;rounded=0;orthogonalLoop=1;jettySize=auto;html=1;exitX=0.5;exitY=1;exitDx=0;exitDy=0;entryX=0.5;entryY=0;entryDx=0;entryDy=0;" edge="1" parent="1" source="D9YKL_5FbP4xU0gXBnWu-22" target="D9YKL_5FbP4xU0gXBnWu-39">
          <mxGeometry relative="1" as="geometry" />
        </mxCell>
        <mxCell id="D9YKL_5FbP4xU0gXBnWu-22" value="P3" style="rounded=0;whiteSpace=wrap;html=1;" vertex="1" parent="1">
          <mxGeometry x="403" y="120" width="50" height="30" as="geometry" />
        </mxCell>
        <mxCell id="D9YKL_5FbP4xU0gXBnWu-23" value="" style="rounded=0;whiteSpace=wrap;html=1;" vertex="1" parent="1">
          <mxGeometry x="290" y="240" width="220" height="110" as="geometry" />
        </mxCell>
        <mxCell id="D9YKL_5FbP4xU0gXBnWu-24" value="18" style="rounded=0;whiteSpace=wrap;html=1;" vertex="1" parent="1">
          <mxGeometry x="324" y="260" width="50" height="30" as="geometry" />
        </mxCell>
        <mxCell id="D9YKL_5FbP4xU0gXBnWu-25" value="21" style="rounded=0;whiteSpace=wrap;html=1;" vertex="1" parent="1">
          <mxGeometry x="374" y="260" width="50" height="30" as="geometry" />
        </mxCell>
        <mxCell id="D9YKL_5FbP4xU0gXBnWu-26" value="25" style="rounded=0;whiteSpace=wrap;html=1;" vertex="1" parent="1">
          <mxGeometry x="424" y="260" width="50" height="30" as="geometry" />
        </mxCell>
        <mxCell id="D9YKL_5FbP4xU0gXBnWu-84" style="edgeStyle=orthogonalEdgeStyle;rounded=0;orthogonalLoop=1;jettySize=auto;html=1;exitX=0.5;exitY=1;exitDx=0;exitDy=0;entryX=0;entryY=0;entryDx=0;entryDy=0;" edge="1" parent="1" source="D9YKL_5FbP4xU0gXBnWu-27" target="D9YKL_5FbP4xU0gXBnWu-105">
          <mxGeometry relative="1" as="geometry">
            <mxPoint x="347" y="380" as="targetPoint" />
          </mxGeometry>
        </mxCell>
        <mxCell id="D9YKL_5FbP4xU0gXBnWu-27" value="P7" style="rounded=0;whiteSpace=wrap;html=1;" vertex="1" parent="1">
          <mxGeometry x="324" y="290" width="50" height="30" as="geometry" />
        </mxCell>
        <mxCell id="D9YKL_5FbP4xU0gXBnWu-85" style="edgeStyle=orthogonalEdgeStyle;rounded=0;orthogonalLoop=1;jettySize=auto;html=1;exitX=0.5;exitY=1;exitDx=0;exitDy=0;entryX=0.25;entryY=0;entryDx=0;entryDy=0;" edge="1" parent="1" source="D9YKL_5FbP4xU0gXBnWu-28" target="D9YKL_5FbP4xU0gXBnWu-117">
          <mxGeometry relative="1" as="geometry">
            <mxPoint x="411" y="380" as="targetPoint" />
          </mxGeometry>
        </mxCell>
        <mxCell id="D9YKL_5FbP4xU0gXBnWu-28" value="P8" style="rounded=0;whiteSpace=wrap;html=1;" vertex="1" parent="1">
          <mxGeometry x="374" y="290" width="50" height="30" as="geometry" />
        </mxCell>
        <mxCell id="D9YKL_5FbP4xU0gXBnWu-86" style="edgeStyle=orthogonalEdgeStyle;rounded=0;orthogonalLoop=1;jettySize=auto;html=1;exitX=0.5;exitY=1;exitDx=0;exitDy=0;entryX=0.25;entryY=0;entryDx=0;entryDy=0;" edge="1" parent="1" source="D9YKL_5FbP4xU0gXBnWu-29" target="D9YKL_5FbP4xU0gXBnWu-123">
          <mxGeometry relative="1" as="geometry">
            <mxPoint x="477" y="380" as="targetPoint" />
          </mxGeometry>
        </mxCell>
        <mxCell id="D9YKL_5FbP4xU0gXBnWu-29" value="P9" style="rounded=0;whiteSpace=wrap;html=1;" vertex="1" parent="1">
          <mxGeometry x="424" y="290" width="50" height="30" as="geometry" />
        </mxCell>
        <mxCell id="D9YKL_5FbP4xU0gXBnWu-30" value="" style="rounded=0;whiteSpace=wrap;html=1;" vertex="1" parent="1">
          <mxGeometry x="39" y="240" width="220" height="110" as="geometry" />
        </mxCell>
        <mxCell id="D9YKL_5FbP4xU0gXBnWu-31" value="8" style="rounded=0;whiteSpace=wrap;html=1;" vertex="1" parent="1">
          <mxGeometry x="74" y="260" width="50" height="30" as="geometry" />
        </mxCell>
        <mxCell id="D9YKL_5FbP4xU0gXBnWu-32" value="11" style="rounded=0;whiteSpace=wrap;html=1;" vertex="1" parent="1">
          <mxGeometry x="124" y="260" width="50" height="30" as="geometry" />
        </mxCell>
        <mxCell id="D9YKL_5FbP4xU0gXBnWu-33" value="15" style="rounded=0;whiteSpace=wrap;html=1;" vertex="1" parent="1">
          <mxGeometry x="174" y="260" width="50" height="30" as="geometry" />
        </mxCell>
        <mxCell id="D9YKL_5FbP4xU0gXBnWu-62" style="edgeStyle=orthogonalEdgeStyle;rounded=0;orthogonalLoop=1;jettySize=auto;html=1;exitX=0.5;exitY=1;exitDx=0;exitDy=0;entryX=0.75;entryY=0;entryDx=0;entryDy=0;" edge="1" parent="1" source="D9YKL_5FbP4xU0gXBnWu-34" target="D9YKL_5FbP4xU0gXBnWu-53">
          <mxGeometry relative="1" as="geometry" />
        </mxCell>
        <mxCell id="D9YKL_5FbP4xU0gXBnWu-34" value="P4" style="rounded=0;whiteSpace=wrap;html=1;" vertex="1" parent="1">
          <mxGeometry x="74" y="290" width="50" height="30" as="geometry" />
        </mxCell>
        <mxCell id="D9YKL_5FbP4xU0gXBnWu-63" style="edgeStyle=orthogonalEdgeStyle;rounded=0;orthogonalLoop=1;jettySize=auto;html=1;exitX=0.5;exitY=1;exitDx=0;exitDy=0;entryX=0.25;entryY=0;entryDx=0;entryDy=0;" edge="1" parent="1" source="D9YKL_5FbP4xU0gXBnWu-35" target="D9YKL_5FbP4xU0gXBnWu-99">
          <mxGeometry relative="1" as="geometry">
            <mxPoint x="137" y="380" as="targetPoint" />
          </mxGeometry>
        </mxCell>
        <mxCell id="D9YKL_5FbP4xU0gXBnWu-35" value="P5" style="rounded=0;whiteSpace=wrap;html=1;" vertex="1" parent="1">
          <mxGeometry x="124" y="290" width="50" height="30" as="geometry" />
        </mxCell>
        <mxCell id="D9YKL_5FbP4xU0gXBnWu-64" style="edgeStyle=orthogonalEdgeStyle;rounded=0;orthogonalLoop=1;jettySize=auto;html=1;exitX=0.5;exitY=1;exitDx=0;exitDy=0;entryX=0;entryY=0;entryDx=0;entryDy=0;" edge="1" parent="1" source="D9YKL_5FbP4xU0gXBnWu-36" target="D9YKL_5FbP4xU0gXBnWu-111">
          <mxGeometry relative="1" as="geometry">
            <mxPoint x="201.5" y="380" as="targetPoint" />
          </mxGeometry>
        </mxCell>
        <mxCell id="D9YKL_5FbP4xU0gXBnWu-36" value="P6" style="rounded=0;whiteSpace=wrap;html=1;" vertex="1" parent="1">
          <mxGeometry x="174" y="290" width="50" height="30" as="geometry" />
        </mxCell>
        <mxCell id="D9YKL_5FbP4xU0gXBnWu-39" value="" style="rounded=0;whiteSpace=wrap;html=1;" vertex="1" parent="1">
          <mxGeometry x="560" y="240" width="220" height="110" as="geometry" />
        </mxCell>
        <mxCell id="D9YKL_5FbP4xU0gXBnWu-40" value="33" style="rounded=0;whiteSpace=wrap;html=1;" vertex="1" parent="1">
          <mxGeometry x="594" y="260" width="50" height="30" as="geometry" />
        </mxCell>
        <mxCell id="D9YKL_5FbP4xU0gXBnWu-41" value="36" style="rounded=0;whiteSpace=wrap;html=1;" vertex="1" parent="1">
          <mxGeometry x="644" y="260" width="50" height="30" as="geometry" />
        </mxCell>
        <mxCell id="D9YKL_5FbP4xU0gXBnWu-42" value="39" style="rounded=0;whiteSpace=wrap;html=1;" vertex="1" parent="1">
          <mxGeometry x="694" y="260" width="50" height="30" as="geometry" />
        </mxCell>
        <mxCell id="D9YKL_5FbP4xU0gXBnWu-81" style="edgeStyle=orthogonalEdgeStyle;rounded=0;orthogonalLoop=1;jettySize=auto;html=1;exitX=0.5;exitY=1;exitDx=0;exitDy=0;entryX=0.25;entryY=0;entryDx=0;entryDy=0;" edge="1" parent="1" source="D9YKL_5FbP4xU0gXBnWu-43" target="D9YKL_5FbP4xU0gXBnWu-129">
          <mxGeometry relative="1" as="geometry">
            <mxPoint x="605" y="380" as="targetPoint" />
          </mxGeometry>
        </mxCell>
        <mxCell id="D9YKL_5FbP4xU0gXBnWu-43" value="P10" style="rounded=0;whiteSpace=wrap;html=1;" vertex="1" parent="1">
          <mxGeometry x="594" y="290" width="50" height="30" as="geometry" />
        </mxCell>
        <mxCell id="D9YKL_5FbP4xU0gXBnWu-82" style="edgeStyle=orthogonalEdgeStyle;rounded=0;orthogonalLoop=1;jettySize=auto;html=1;exitX=0.5;exitY=1;exitDx=0;exitDy=0;entryX=0.25;entryY=0;entryDx=0;entryDy=0;" edge="1" parent="1" source="D9YKL_5FbP4xU0gXBnWu-44" target="D9YKL_5FbP4xU0gXBnWu-135">
          <mxGeometry relative="1" as="geometry">
            <mxPoint x="669" y="380" as="targetPoint" />
          </mxGeometry>
        </mxCell>
        <mxCell id="D9YKL_5FbP4xU0gXBnWu-44" value="P11" style="rounded=0;whiteSpace=wrap;html=1;" vertex="1" parent="1">
          <mxGeometry x="644" y="290" width="50" height="30" as="geometry" />
        </mxCell>
        <mxCell id="D9YKL_5FbP4xU0gXBnWu-83" style="edgeStyle=orthogonalEdgeStyle;rounded=0;orthogonalLoop=1;jettySize=auto;html=1;exitX=0.5;exitY=1;exitDx=0;exitDy=0;entryX=0;entryY=0;entryDx=0;entryDy=0;" edge="1" parent="1" source="D9YKL_5FbP4xU0gXBnWu-45" target="D9YKL_5FbP4xU0gXBnWu-141">
          <mxGeometry relative="1" as="geometry">
            <mxPoint x="735" y="380" as="targetPoint" />
          </mxGeometry>
        </mxCell>
        <mxCell id="D9YKL_5FbP4xU0gXBnWu-45" value="P12" style="rounded=0;whiteSpace=wrap;html=1;" vertex="1" parent="1">
          <mxGeometry x="694" y="290" width="50" height="30" as="geometry" />
        </mxCell>
        <mxCell id="D9YKL_5FbP4xU0gXBnWu-53" value="8" style="rounded=0;whiteSpace=wrap;html=1;" vertex="1" parent="1">
          <mxGeometry x="24" y="400" width="20" height="30" as="geometry" />
        </mxCell>
        <mxCell id="D9YKL_5FbP4xU0gXBnWu-54" value="10" style="rounded=0;whiteSpace=wrap;html=1;" vertex="1" parent="1">
          <mxGeometry x="24" y="460" width="20" height="30" as="geometry" />
        </mxCell>
        <mxCell id="D9YKL_5FbP4xU0gXBnWu-55" value="9" style="rounded=0;whiteSpace=wrap;html=1;" vertex="1" parent="1">
          <mxGeometry x="24" y="430" width="20" height="30" as="geometry" />
        </mxCell>
        <mxCell id="D9YKL_5FbP4xU0gXBnWu-87" value="data" style="rounded=0;whiteSpace=wrap;html=1;" vertex="1" parent="1">
          <mxGeometry x="44" y="400" width="30" height="30" as="geometry" />
        </mxCell>
        <mxCell id="D9YKL_5FbP4xU0gXBnWu-88" value="data" style="rounded=0;whiteSpace=wrap;html=1;" vertex="1" parent="1">
          <mxGeometry x="44" y="430" width="30" height="30" as="geometry" />
        </mxCell>
        <mxCell id="D9YKL_5FbP4xU0gXBnWu-89" value="data" style="rounded=0;whiteSpace=wrap;html=1;" vertex="1" parent="1">
          <mxGeometry x="44" y="460" width="30" height="30" as="geometry" />
        </mxCell>
        <mxCell id="D9YKL_5FbP4xU0gXBnWu-96" value="11" style="rounded=0;whiteSpace=wrap;html=1;" vertex="1" parent="1">
          <mxGeometry x="100" y="400" width="20" height="30" as="geometry" />
        </mxCell>
        <mxCell id="D9YKL_5FbP4xU0gXBnWu-97" value="13" style="rounded=0;whiteSpace=wrap;html=1;" vertex="1" parent="1">
          <mxGeometry x="100" y="460" width="20" height="30" as="geometry" />
        </mxCell>
        <mxCell id="D9YKL_5FbP4xU0gXBnWu-98" value="12" style="rounded=0;whiteSpace=wrap;html=1;" vertex="1" parent="1">
          <mxGeometry x="100" y="430" width="20" height="30" as="geometry" />
        </mxCell>
        <mxCell id="D9YKL_5FbP4xU0gXBnWu-99" value="data" style="rounded=0;whiteSpace=wrap;html=1;" vertex="1" parent="1">
          <mxGeometry x="120" y="400" width="30" height="30" as="geometry" />
        </mxCell>
        <mxCell id="D9YKL_5FbP4xU0gXBnWu-100" value="data" style="rounded=0;whiteSpace=wrap;html=1;" vertex="1" parent="1">
          <mxGeometry x="120" y="430" width="30" height="30" as="geometry" />
        </mxCell>
        <mxCell id="D9YKL_5FbP4xU0gXBnWu-101" value="data" style="rounded=0;whiteSpace=wrap;html=1;" vertex="1" parent="1">
          <mxGeometry x="120" y="460" width="30" height="30" as="geometry" />
        </mxCell>
        <mxCell id="D9YKL_5FbP4xU0gXBnWu-102" value="18" style="rounded=0;whiteSpace=wrap;html=1;" vertex="1" parent="1">
          <mxGeometry x="280" y="400" width="20" height="30" as="geometry" />
        </mxCell>
        <mxCell id="D9YKL_5FbP4xU0gXBnWu-103" value="20" style="rounded=0;whiteSpace=wrap;html=1;" vertex="1" parent="1">
          <mxGeometry x="280" y="460" width="20" height="30" as="geometry" />
        </mxCell>
        <mxCell id="D9YKL_5FbP4xU0gXBnWu-104" value="19" style="rounded=0;whiteSpace=wrap;html=1;" vertex="1" parent="1">
          <mxGeometry x="280" y="430" width="20" height="30" as="geometry" />
        </mxCell>
        <mxCell id="D9YKL_5FbP4xU0gXBnWu-105" value="data" style="rounded=0;whiteSpace=wrap;html=1;" vertex="1" parent="1">
          <mxGeometry x="300" y="400" width="30" height="30" as="geometry" />
        </mxCell>
        <mxCell id="D9YKL_5FbP4xU0gXBnWu-106" value="data" style="rounded=0;whiteSpace=wrap;html=1;" vertex="1" parent="1">
          <mxGeometry x="300" y="430" width="30" height="30" as="geometry" />
        </mxCell>
        <mxCell id="D9YKL_5FbP4xU0gXBnWu-107" value="data" style="rounded=0;whiteSpace=wrap;html=1;" vertex="1" parent="1">
          <mxGeometry x="300" y="460" width="30" height="30" as="geometry" />
        </mxCell>
        <mxCell id="D9YKL_5FbP4xU0gXBnWu-108" value="15" style="rounded=0;whiteSpace=wrap;html=1;" vertex="1" parent="1">
          <mxGeometry x="180" y="400" width="20" height="30" as="geometry" />
        </mxCell>
        <mxCell id="D9YKL_5FbP4xU0gXBnWu-109" value="17" style="rounded=0;whiteSpace=wrap;html=1;" vertex="1" parent="1">
          <mxGeometry x="180" y="460" width="20" height="30" as="geometry" />
        </mxCell>
        <mxCell id="D9YKL_5FbP4xU0gXBnWu-110" value="16" style="rounded=0;whiteSpace=wrap;html=1;" vertex="1" parent="1">
          <mxGeometry x="180" y="430" width="20" height="30" as="geometry" />
        </mxCell>
        <mxCell id="D9YKL_5FbP4xU0gXBnWu-111" value="data" style="rounded=0;whiteSpace=wrap;html=1;" vertex="1" parent="1">
          <mxGeometry x="200" y="400" width="30" height="30" as="geometry" />
        </mxCell>
        <mxCell id="D9YKL_5FbP4xU0gXBnWu-112" value="data" style="rounded=0;whiteSpace=wrap;html=1;" vertex="1" parent="1">
          <mxGeometry x="200" y="430" width="30" height="30" as="geometry" />
        </mxCell>
        <mxCell id="D9YKL_5FbP4xU0gXBnWu-113" value="data" style="rounded=0;whiteSpace=wrap;html=1;" vertex="1" parent="1">
          <mxGeometry x="200" y="460" width="30" height="30" as="geometry" />
        </mxCell>
        <mxCell id="D9YKL_5FbP4xU0gXBnWu-114" value="21" style="rounded=0;whiteSpace=wrap;html=1;" vertex="1" parent="1">
          <mxGeometry x="364" y="400" width="20" height="30" as="geometry" />
        </mxCell>
        <mxCell id="D9YKL_5FbP4xU0gXBnWu-115" value="23" style="rounded=0;whiteSpace=wrap;html=1;" vertex="1" parent="1">
          <mxGeometry x="364" y="460" width="20" height="30" as="geometry" />
        </mxCell>
        <mxCell id="D9YKL_5FbP4xU0gXBnWu-116" value="21" style="rounded=0;whiteSpace=wrap;html=1;" vertex="1" parent="1">
          <mxGeometry x="364" y="430" width="20" height="30" as="geometry" />
        </mxCell>
        <mxCell id="D9YKL_5FbP4xU0gXBnWu-117" value="data" style="rounded=0;whiteSpace=wrap;html=1;" vertex="1" parent="1">
          <mxGeometry x="384" y="400" width="30" height="30" as="geometry" />
        </mxCell>
        <mxCell id="D9YKL_5FbP4xU0gXBnWu-118" value="data" style="rounded=0;whiteSpace=wrap;html=1;" vertex="1" parent="1">
          <mxGeometry x="384" y="430" width="30" height="30" as="geometry" />
        </mxCell>
        <mxCell id="D9YKL_5FbP4xU0gXBnWu-119" value="data" style="rounded=0;whiteSpace=wrap;html=1;" vertex="1" parent="1">
          <mxGeometry x="384" y="460" width="30" height="30" as="geometry" />
        </mxCell>
        <mxCell id="D9YKL_5FbP4xU0gXBnWu-120" value="25" style="rounded=0;whiteSpace=wrap;html=1;" vertex="1" parent="1">
          <mxGeometry x="460" y="400" width="20" height="30" as="geometry" />
        </mxCell>
        <mxCell id="D9YKL_5FbP4xU0gXBnWu-121" value="27" style="rounded=0;whiteSpace=wrap;html=1;" vertex="1" parent="1">
          <mxGeometry x="460" y="460" width="20" height="30" as="geometry" />
        </mxCell>
        <mxCell id="D9YKL_5FbP4xU0gXBnWu-122" value="26" style="rounded=0;whiteSpace=wrap;html=1;" vertex="1" parent="1">
          <mxGeometry x="460" y="430" width="20" height="30" as="geometry" />
        </mxCell>
        <mxCell id="D9YKL_5FbP4xU0gXBnWu-123" value="data" style="rounded=0;whiteSpace=wrap;html=1;" vertex="1" parent="1">
          <mxGeometry x="480" y="400" width="30" height="30" as="geometry" />
        </mxCell>
        <mxCell id="D9YKL_5FbP4xU0gXBnWu-124" value="data" style="rounded=0;whiteSpace=wrap;html=1;" vertex="1" parent="1">
          <mxGeometry x="480" y="430" width="30" height="30" as="geometry" />
        </mxCell>
        <mxCell id="D9YKL_5FbP4xU0gXBnWu-125" value="data" style="rounded=0;whiteSpace=wrap;html=1;" vertex="1" parent="1">
          <mxGeometry x="480" y="460" width="30" height="30" as="geometry" />
        </mxCell>
        <mxCell id="D9YKL_5FbP4xU0gXBnWu-126" value="33" style="rounded=0;whiteSpace=wrap;html=1;" vertex="1" parent="1">
          <mxGeometry x="550" y="400" width="20" height="30" as="geometry" />
        </mxCell>
        <mxCell id="D9YKL_5FbP4xU0gXBnWu-127" value="35" style="rounded=0;whiteSpace=wrap;html=1;" vertex="1" parent="1">
          <mxGeometry x="550" y="460" width="20" height="30" as="geometry" />
        </mxCell>
        <mxCell id="D9YKL_5FbP4xU0gXBnWu-128" value="34" style="rounded=0;whiteSpace=wrap;html=1;" vertex="1" parent="1">
          <mxGeometry x="550" y="430" width="20" height="30" as="geometry" />
        </mxCell>
        <mxCell id="D9YKL_5FbP4xU0gXBnWu-129" value="data" style="rounded=0;whiteSpace=wrap;html=1;" vertex="1" parent="1">
          <mxGeometry x="570" y="400" width="30" height="30" as="geometry" />
        </mxCell>
        <mxCell id="D9YKL_5FbP4xU0gXBnWu-130" value="data" style="rounded=0;whiteSpace=wrap;html=1;" vertex="1" parent="1">
          <mxGeometry x="570" y="430" width="30" height="30" as="geometry" />
        </mxCell>
        <mxCell id="D9YKL_5FbP4xU0gXBnWu-131" value="data" style="rounded=0;whiteSpace=wrap;html=1;" vertex="1" parent="1">
          <mxGeometry x="570" y="460" width="30" height="30" as="geometry" />
        </mxCell>
        <mxCell id="D9YKL_5FbP4xU0gXBnWu-132" value="36" style="rounded=0;whiteSpace=wrap;html=1;" vertex="1" parent="1">
          <mxGeometry x="644" y="400" width="20" height="30" as="geometry" />
        </mxCell>
        <mxCell id="D9YKL_5FbP4xU0gXBnWu-133" value="38" style="rounded=0;whiteSpace=wrap;html=1;" vertex="1" parent="1">
          <mxGeometry x="644" y="460" width="20" height="30" as="geometry" />
        </mxCell>
        <mxCell id="D9YKL_5FbP4xU0gXBnWu-134" value="37" style="rounded=0;whiteSpace=wrap;html=1;" vertex="1" parent="1">
          <mxGeometry x="644" y="430" width="20" height="30" as="geometry" />
        </mxCell>
        <mxCell id="D9YKL_5FbP4xU0gXBnWu-135" value="data" style="rounded=0;whiteSpace=wrap;html=1;" vertex="1" parent="1">
          <mxGeometry x="664" y="400" width="30" height="30" as="geometry" />
        </mxCell>
        <mxCell id="D9YKL_5FbP4xU0gXBnWu-136" value="data" style="rounded=0;whiteSpace=wrap;html=1;" vertex="1" parent="1">
          <mxGeometry x="664" y="430" width="30" height="30" as="geometry" />
        </mxCell>
        <mxCell id="D9YKL_5FbP4xU0gXBnWu-137" value="data" style="rounded=0;whiteSpace=wrap;html=1;" vertex="1" parent="1">
          <mxGeometry x="664" y="460" width="30" height="30" as="geometry" />
        </mxCell>
        <mxCell id="D9YKL_5FbP4xU0gXBnWu-138" value="39" style="rounded=0;whiteSpace=wrap;html=1;" vertex="1" parent="1">
          <mxGeometry x="730" y="400" width="20" height="30" as="geometry" />
        </mxCell>
        <mxCell id="D9YKL_5FbP4xU0gXBnWu-139" value="41" style="rounded=0;whiteSpace=wrap;html=1;" vertex="1" parent="1">
          <mxGeometry x="730" y="460" width="20" height="30" as="geometry" />
        </mxCell>
        <mxCell id="D9YKL_5FbP4xU0gXBnWu-140" value="40" style="rounded=0;whiteSpace=wrap;html=1;" vertex="1" parent="1">
          <mxGeometry x="730" y="430" width="20" height="30" as="geometry" />
        </mxCell>
        <mxCell id="D9YKL_5FbP4xU0gXBnWu-141" value="data" style="rounded=0;whiteSpace=wrap;html=1;" vertex="1" parent="1">
          <mxGeometry x="750" y="400" width="30" height="30" as="geometry" />
        </mxCell>
        <mxCell id="D9YKL_5FbP4xU0gXBnWu-142" value="data" style="rounded=0;whiteSpace=wrap;html=1;" vertex="1" parent="1">
          <mxGeometry x="750" y="430" width="30" height="30" as="geometry" />
        </mxCell>
        <mxCell id="D9YKL_5FbP4xU0gXBnWu-143" value="data" style="rounded=0;whiteSpace=wrap;html=1;" vertex="1" parent="1">
          <mxGeometry x="750" y="460" width="30" height="30" as="geometry" />
        </mxCell>
        <mxCell id="D9YKL_5FbP4xU0gXBnWu-166" value="" style="endArrow=classic;startArrow=classic;html=1;" edge="1" parent="1">
          <mxGeometry width="50" height="50" relative="1" as="geometry">
            <mxPoint x="74" y="444.5" as="sourcePoint" />
            <mxPoint x="104" y="444.5" as="targetPoint" />
            <Array as="points">
              <mxPoint x="94" y="444.5" />
            </Array>
          </mxGeometry>
        </mxCell>
        <mxCell id="D9YKL_5FbP4xU0gXBnWu-167" value="" style="endArrow=classic;startArrow=classic;html=1;" edge="1" parent="1">
          <mxGeometry width="50" height="50" relative="1" as="geometry">
            <mxPoint x="150" y="444.5" as="sourcePoint" />
            <mxPoint x="180" y="444.5" as="targetPoint" />
            <Array as="points">
              <mxPoint x="170" y="444.5" />
            </Array>
          </mxGeometry>
        </mxCell>
        <mxCell id="D9YKL_5FbP4xU0gXBnWu-168" value="" style="endArrow=classic;startArrow=classic;html=1;exitX=1;exitY=0.5;exitDx=0;exitDy=0;" edge="1" parent="1" source="D9YKL_5FbP4xU0gXBnWu-112">
          <mxGeometry width="50" height="50" relative="1" as="geometry">
            <mxPoint x="250" y="444.5" as="sourcePoint" />
            <mxPoint x="280" y="444.5" as="targetPoint" />
            <Array as="points">
              <mxPoint x="270" y="444.5" />
            </Array>
          </mxGeometry>
        </mxCell>
        <mxCell id="D9YKL_5FbP4xU0gXBnWu-169" value="" style="endArrow=classic;startArrow=classic;html=1;" edge="1" parent="1">
          <mxGeometry width="50" height="50" relative="1" as="geometry">
            <mxPoint x="330" y="440" as="sourcePoint" />
            <mxPoint x="360" y="440" as="targetPoint" />
            <Array as="points">
              <mxPoint x="350" y="440" />
            </Array>
          </mxGeometry>
        </mxCell>
        <mxCell id="D9YKL_5FbP4xU0gXBnWu-170" value="" style="endArrow=classic;startArrow=classic;html=1;entryX=0;entryY=0.5;entryDx=0;entryDy=0;" edge="1" parent="1" target="D9YKL_5FbP4xU0gXBnWu-122">
          <mxGeometry width="50" height="50" relative="1" as="geometry">
            <mxPoint x="414" y="444.5" as="sourcePoint" />
            <mxPoint x="444" y="444.5" as="targetPoint" />
            <Array as="points">
              <mxPoint x="434" y="444.5" />
            </Array>
          </mxGeometry>
        </mxCell>
        <mxCell id="D9YKL_5FbP4xU0gXBnWu-174" value="" style="endArrow=classic;startArrow=classic;html=1;entryX=0;entryY=0.5;entryDx=0;entryDy=0;" edge="1" parent="1">
          <mxGeometry width="50" height="50" relative="1" as="geometry">
            <mxPoint x="504" y="444.5" as="sourcePoint" />
            <mxPoint x="550" y="445" as="targetPoint" />
            <Array as="points">
              <mxPoint x="524" y="444.5" />
            </Array>
          </mxGeometry>
        </mxCell>
        <mxCell id="D9YKL_5FbP4xU0gXBnWu-175" value="" style="endArrow=classic;startArrow=classic;html=1;entryX=0;entryY=0.5;entryDx=0;entryDy=0;" edge="1" parent="1">
          <mxGeometry width="50" height="50" relative="1" as="geometry">
            <mxPoint x="594" y="444.5" as="sourcePoint" />
            <mxPoint x="640" y="445" as="targetPoint" />
            <Array as="points">
              <mxPoint x="614" y="444.5" />
            </Array>
          </mxGeometry>
        </mxCell>
        <mxCell id="D9YKL_5FbP4xU0gXBnWu-176" value="" style="endArrow=classic;startArrow=classic;html=1;entryX=0;entryY=0.5;entryDx=0;entryDy=0;" edge="1" parent="1">
          <mxGeometry width="50" height="50" relative="1" as="geometry">
            <mxPoint x="694" y="444.5" as="sourcePoint" />
            <mxPoint x="740" y="445" as="targetPoint" />
            <Array as="points">
              <mxPoint x="714" y="444.5" />
            </Array>
          </mxGeometry>
        </mxCell>
      </root>
    </mxGraphModel>
  </diagram>
</mxfile>
